HIERARCHY
ROOT Hips
{
	OFFSET -0.001795 -0.223333 0.028219
	CHANNELS 6 Xposition Yposition Zposition Zrotation Yrotation Xrotation 
	JOINT LeftUpLeg
	{
		OFFSET 0.069520 -0.091406 -0.006815
		CHANNELS 3 Zrotation Yrotation Xrotation
		JOINT LeftLeg
		{
			OFFSET 0.034277 -0.375199 -0.004496
			CHANNELS 3 Zrotation Yrotation Xrotation
			JOINT LeftFoot
			{
				OFFSET -0.013596 -0.397961 -0.043693
				CHANNELS 3 Zrotation Yrotation Xrotation
				JOINT LeftToe
				{
					OFFSET 0.026358 -0.055791 0.119288
					CHANNELS 3 Zrotation Yrotation Xrotation
					End Site
					{
						OFFSET 0.000000 0.000000 0.000000
					}
				}
			}
		}
	}
	JOINT RightUpLeg
	{
		OFFSET -0.067670 -0.090522 -0.004320
		CHANNELS 3 Zrotation Yrotation Xrotation
		JOINT RightLeg
		{
			OFFSET -0.038290 -0.382569 -0.008850
			CHANNELS 3 Zrotation Yrotation Xrotation
			JOINT RightFoot
			{
				OFFSET 0.015774 -0.398415 -0.042312
				CHANNELS 3 Zrotation Yrotation Xrotation
				JOINT RightToe
				{
					OFFSET -0.025372 -0.048144 0.123348
					CHANNELS 3 Zrotation Yrotation Xrotation
					End Site
					{
						OFFSET 0.000000 0.000000 0.000000
					}
				}
			}
		}
	}
	JOINT Spine
	{
		OFFSET -0.002533 0.108963 -0.026696
		CHANNELS 3 Zrotation Yrotation Xrotation
		JOINT Spine1
		{
			OFFSET 0.005487 0.135180 0.001092
			CHANNELS 3 Zrotation Yrotation Xrotation
			JOINT Spine2
			{
				OFFSET 0.001457 0.052922 0.025425
				CHANNELS 3 Zrotation Yrotation Xrotation
				JOINT Neck
				{
					OFFSET -0.002778 0.213870 -0.042857
					CHANNELS 3 Zrotation Yrotation Xrotation
					JOINT Head
					{
						OFFSET 0.005152 0.064970 0.051349
						CHANNELS 3 Zrotation Yrotation Xrotation
						End Site
						{
							OFFSET 0.000000 0.000000 0.000000
						}
					}
				}
				JOINT LeftShoulder
				{
					OFFSET 0.078845 0.121749 -0.034090
					CHANNELS 3 Zrotation Yrotation Xrotation
					JOINT LeftArm
					{
						OFFSET 0.090977 0.030469 -0.008868
						CHANNELS 3 Zrotation Yrotation Xrotation
						JOINT LeftForeArm
						{
							OFFSET 0.259612 -0.012772 -0.027456
							CHANNELS 3 Zrotation Yrotation Xrotation
							JOINT LeftHand
							{
								OFFSET 0.249234 0.008986 -0.001171
								CHANNELS 3 Zrotation Yrotation Xrotation
								End Site
								{
									OFFSET 0.000000 0.000000 0.000000
								}
							}
						}
					}
				}
				JOINT RightShoulder
				{
					OFFSET -0.081759 0.118833 -0.038615
					CHANNELS 3 Zrotation Yrotation Xrotation
					JOINT RightArm
					{
						OFFSET -0.096012 0.032551 -0.009143
						CHANNELS 3 Zrotation Yrotation Xrotation
						JOINT RightForeArm
						{
							OFFSET -0.253742 -0.013329 -0.021401
							CHANNELS 3 Zrotation Yrotation Xrotation
							JOINT RightHand
							{
								OFFSET -0.255298 0.007772 -0.005559
								CHANNELS 3 Zrotation Yrotation Xrotation
								End Site
								{
									OFFSET 0.000000 0.000000 0.000000
								}
							}
						}
					}
				}
			}
		}
	}
}
MOTION
Frames: 8
Frame Time: 0.050000
0.189479 0.518778 0.655276 -3.987020 -4.592242 -9.415970 15.551131 3.323903 -47.558499 -31.289096 43.398406 102.541131 89.840438 57.407799 76.478313 0.000000 0.000000 0.000000 -4.346216 7.121306 -71.554269 47.618715 -36.557738 68.911422 -27.735598 -61.352284 -3.313751 0.000000 0.000000 0.000000 0.853682 -2.042149 67.353619 4.456321 -1.780143 -6.573851 -3.573468 1.353130 4.077640 10.594023 -1.251965 -39.046982 0.000000 0.000000 0.000000 7.241537 -43.798006 12.301925 2.845012 -18.809425 -0.990437 11.726866 -6.893981 -0.441037 0.000000 0.000000 0.000000 21.644352 36.445467 19.365202 24.360231 22.108937 1.417197 -11.134407 24.517259 -1.505529 0.000000 0.000000 0.000000 
0.189848 0.548093 0.656999 -3.993886 -4.558542 -7.840721 14.614319 2.717336 -45.549203 -31.227793 40.326808 97.719187 91.025380 59.125543 74.657894 0.000000 0.000000 0.000000 -2.666011 7.916808 -69.277351 42.947187 -32.753764 69.563366 -24.720977 -58.689681 -6.482309 0.000000 0.000000 0.000000 0.293362 -1.622786 64.822310 4.440658 -1.804223 -5.987408 -3.357769 0.882342 3.443584 11.322611 -1.705960 -38.063891 0.000000 0.000000 0.000000 6.285583 -44.395582 13.014892 2.602041 -18.336040 -0.956211 12.331089 -7.046824 -0.478396 0.000000 0.000000 0.000000 22.328682 36.228412 19.390670 25.402930 20.497627 1.271082 -11.432857 25.336917 -1.613822 0.000000 0.000000 0.000000 
0.190761 0.583665 0.661151 -3.496103 -4.522072 -6.589180 12.963482 1.804922 -42.435113 -31.405628 36.726009 90.953727 93.425750 60.435472 74.495931 0.000000 0.000000 0.000000 -1.457994 8.198470 -66.182667 38.504105 -28.646656 69.410629 -22.637536 -55.038154 -6.995169 0.000000 0.000000 0.000000 0.129936 -1.454290 62.189814 4.292169 -1.698776 -6.511503 -4.040661 -0.079519 3.923894 11.325714 -1.934171 -37.375814 0.000000 0.000000 0.000000 4.408917 -43.863483 13.667213 1.507367 -18.282074 -0.906644 13.459669 -8.752203 -0.679490 0.000000 0.000000 0.000000 23.076971 35.574741 18.981532 26.757587 18.438946 1.024864 -10.436392 27.022208 -1.520201 0.000000 0.000000 0.000000 
0.192252 0.626572 0.667577 -2.915097 -5.038874 -5.608260 11.739135 1.232117 -38.569257 -31.436429 33.020233 82.996507 93.313367 60.917254 73.542636 0.000000 0.000000 0.000000 0.245851 8.700908 -62.036014 33.682768 -23.664561 68.346603 -20.856070 -50.645989 -6.009967 0.000000 0.000000 0.000000 -0.269201 -0.978006 58.171399 4.045686 -1.648162 -5.683098 -4.163484 -0.344270 3.697280 11.396118 -2.148031 -36.454393 0.000000 0.000000 0.000000 1.332973 -42.993587 14.609293 -0.994970 -18.226562 -0.793842 14.111040 -11.685114 -0.982307 0.000000 0.000000 0.000000 22.607805 33.440975 17.375093 29.945011 17.038420 0.988939 -9.998423 29.271467 -1.560740 0.000000 0.000000 0.000000 
0.194108 0.671707 0.675977 -2.393173 -4.476009 -4.434634 9.254785 0.158158 -34.800687 -30.032143 27.915359 75.466566 92.400806 61.553141 71.842650 0.000000 0.000000 0.000000 1.666415 8.475898 -57.636666 28.884524 -18.787393 65.761978 -19.298978 -46.483608 -4.751002 0.000000 0.000000 0.000000 -0.194789 -1.124809 54.107090 4.163322 -1.642683 -6.369867 -4.448332 -0.963939 4.996992 10.635830 -2.081620 -35.767014 0.000000 0.000000 0.000000 -1.413914 -40.662670 14.793132 -4.523011 -19.208880 -0.671027 15.781650 -14.805788 -1.472732 0.000000 0.000000 0.000000 22.507580 32.016698 16.328685 31.572301 15.295197 0.644830 -9.006963 30.399883 -1.385635 0.000000 0.000000 0.000000 
0.196262 0.717280 0.685814 -1.703541 -4.497605 -3.635373 7.236034 -0.482413 -31.206634 -28.989298 23.892623 67.722064 90.176961 60.465971 71.597963 0.000000 0.000000 0.000000 2.762387 8.109786 -52.815774 24.870796 -14.402626 61.888559 -17.862545 -42.037802 -2.265507 0.000000 0.000000 0.000000 -0.383355 -0.966508 49.599706 3.770804 -1.558069 -4.951279 -4.464095 -0.504231 4.386868 10.476540 -2.243375 -33.898039 0.000000 0.000000 0.000000 -3.820537 -38.841755 14.885294 -8.520523 -19.799000 -0.441424 15.507242 -17.780410 -1.742164 0.000000 0.000000 0.000000 22.365382 29.735414 15.041393 33.773985 13.484280 0.276682 -8.118603 32.541705 -1.238021 0.000000 0.000000 0.000000 
0.199108 0.758769 0.696422 -1.137703 -4.396486 -2.809813 4.918831 -1.063191 -27.635653 -27.176206 19.765732 60.403358 88.292757 59.372403 71.749027 0.000000 0.000000 0.000000 3.779780 7.755242 -48.773585 21.836633 -11.139085 57.212601 -18.666562 -41.052004 3.026381 0.000000 0.000000 0.000000 -0.182089 -1.024546 45.641259 3.769126 -1.515930 -5.550400 -5.043692 0.134913 5.660211 10.729799 -2.347546 -33.823371 0.000000 0.000000 0.000000 -5.651452 -36.500476 14.397254 -12.693992 -20.318205 -0.196829 15.339675 -20.236440 -1.980978 0.000000 0.000000 0.000000 21.845835 27.703785 13.951795 35.236754 12.510570 -0.092948 -8.128707 32.823389 -1.211882 0.000000 0.000000 0.000000 
0.202546 0.795531 0.707454 -0.498276 -3.598245 -1.967547 1.942155 -1.645139 -24.025088 -24.400625 15.338157 53.639462 86.018132 58.725031 70.925802 0.000000 0.000000 0.000000 4.121089 6.961385 -44.761753 18.800298 -8.314998 51.106756 -19.689285 -40.471794 8.501705 0.000000 0.000000 0.000000 0.639389 -1.410760 41.486953 3.617182 -1.447062 -5.362944 -5.807910 0.664438 5.732109 11.622650 -2.808114 -32.780594 0.000000 0.000000 0.000000 -7.622234 -34.556304 14.007144 -16.553333 -20.086099 0.031215 13.538622 -21.578021 -1.790531 0.000000 0.000000 0.000000 22.559486 25.136873 12.879520 35.742267 11.208439 -0.534762 -6.737605 32.517835 -0.771717 0.000000 0.000000 0.000000 
